<svg xmlns="http://www.w3.org/2000/svg" viewBox="0 0 320 180" fill="none" stroke-linecap="round" stroke-linejoin="round">
<ellipse cx="160" cy="158" rx="92" ry="2" fill="#7c5cbf" fill-opacity=".15"/>
<rect x="62" y="22" width="196" height="132" rx="16" fill="#7c5cbf" fill-opacity=".14" stroke="#7c5cbf" stroke-width="2.5"/>
<rect x="70" y="46" width="128" height="100" rx="14" fill="#06b6d4" fill-opacity=".14" stroke="#0891b2" stroke-width="2.5"/>
<rect x="206" y="46" width="44" height="100" rx="12" fill="#9b7fd4" fill-opacity=".3" stroke="#9b7fd4" stroke-width="2.5"/>
<rect x="80" y="70" width="108" height="68" rx="12" fill="#22d3ee" fill-opacity=".18" stroke="#06b6d4" stroke-width="2.5"/>
<rect x="100" y="92" width="48" height="38" rx="10" fill="#7c5cbf"/>
<path d="M68 38V26h5a3.5 3.5 0 0 1 0 7h-5M73 33l4 5" stroke="#7c5cbf" stroke-width="3"/>
<path d="M78 58a5 6 0 1 0 10 0a5 6 0 1 0-10 0M85 61l3 4" stroke="#0891b2" stroke-width="3"/>
<path d="M228 52v12M225 52h6M225 64h6" stroke="#9b7fd4" stroke-width="3"/>
<path d="M88 76h9l-9 12h9" stroke="#06b6d4" stroke-width="3"/>
<path d="M119 117v-12l10 12v-12" stroke="#f0f0f0" stroke-width="3"/>
</svg>
