<svg xmlns="http://www.w3.org/2000/svg" viewBox="0 0 320 180" fill="none" stroke-linecap="round" stroke-linejoin="round">
<rect x="70" y="26" width="30" height="30" rx="9" fill="#9b7fd4" fill-opacity=".3" stroke="#9b7fd4" stroke-width="2.5"/>
<rect x="108" y="26" width="30" height="30" rx="9" fill="#9b7fd4" fill-opacity=".3" stroke="#9b7fd4" stroke-width="2.5"/>
<path d="M81.5 35.5a3.5 3.5 0 1 0 7.0 0a3.5 3.5 0 1 0-7.0 0M78 48.0a7 6 0 0 1 14 0M115 41a8 8 0 1 0 16 0a8 8 0 1 0-16 0M123 36v5l3 3M85 56l12 20M123 56l-12 20" stroke="#7c5cbf" stroke-width="2.5"/>
<rect x="64" y="76" width="192" height="50" rx="14" fill="#7c5cbf" fill-opacity=".14" stroke="#7c5cbf" stroke-width="2.5"/>
<rect x="72" y="84" width="64" height="34" rx="10" fill="#7c5cbf"/>
<path d="M88 101h32" stroke="#f0f0f0" stroke-width="3"/>
<rect x="142" y="90" width="26" height="22" rx="8" fill="#9b7fd4" fill-opacity=".3" stroke="#9b7fd4" stroke-width="2.5" stroke-dasharray="4 4"/>
<rect x="174" y="84" width="74" height="34" rx="10" fill="#22d3ee" fill-opacity=".18" stroke="#06b6d4" stroke-width="2.5"/>
<path d="M188 101h46" stroke="#06b6d4" stroke-width="3"/>
<path d="M186 126l-6 12M211 126v12M236 126l6 12" stroke="#9b7fd4" stroke-opacity=".7" stroke-width="2"/>
<path d="M170 146a6 6 0 1 0 12 0a6 6 0 1 0-12 0M200 146q5-7 11 0t11 0M236 146l4 4 8-8" stroke="#0891b2" stroke-width="2.5"/>
</svg>
